<?xml version="1.0" standalone="no"?>
<!DOCTYPE svg PUBLIC "-//W3C//DTD SVG 20010904//EN"
 "http://www.w3.org/TR/2001/REC-SVG-20010904/DTD/svg10.dtd">
<svg version="1.0" xmlns="http://www.w3.org/2000/svg"
 width="495.000000pt" height="386.000000pt" viewBox="0 0 495.000000 386.000000"
 preserveAspectRatio="xMidYMid meet">

<g transform="translate(0.000000,386.000000) scale(0.100000,-0.100000)"
fill="#000000" stroke="none">
<path d="M4093 3776 c-23 -7 -56 -23 -75 -34 -18 -12 -514 -503 -1103 -1092
-588 -588 -1074 -1070 -1080 -1070 -5 0 -212 202 -460 449 -510 509 -481 486
-640 486 -146 0 -168 -14 -422 -268 -254 -254 -268 -276 -268 -422 0 -165 -46
-110 827 -981 607 -605 773 -766 813 -785 42 -20 65 -24 150 -24 85 0 108 4
150 24 40 19 317 291 1448 1420 1585 1583 1462 1447 1462 1616 0 146 -14 168
-268 422 -247 247 -276 266 -412 270 -47 2 -97 -3 -122 -11z"/>
</g>
</svg>
