<?xml version="1.0" encoding="UTF-8"?>
<svg version="1.1" xmlns="http://www.w3.org/2000/svg" width="512" height="512">
<path d="M0 0 C8.34615258 6.34399731 15.60570795 13.9866083 22.98193359 21.40380859 C25.29342959 23.72607053 27.61548308 26.0373915 29.9387207 28.34790039 C31.42699296 29.83749357 32.91464505 31.32770667 34.40161133 32.81860352 C35.08814285 33.50108658 35.77467438 34.18356964 36.48200989 34.88673401 C45.50472628 43.99722452 50.16166135 52.37692377 51.28833008 65.22094727 C50.97040162 81.81681255 39.81283869 92.12359972 28.83720398 103.0644989 C27.71180108 104.19364435 26.58682952 105.32321983 25.4622491 106.45318443 C22.3892166 109.53838684 19.31002981 112.61738039 16.229725 115.69531977 C12.90159242 119.02304267 9.57920064 122.35648922 6.25601196 125.68914795 C-0.24779425 132.20953045 -6.75711371 138.72438158 -13.2686545 145.23703917 C-18.56206639 150.53140282 -23.85389286 155.82734594 -29.14461327 161.12439919 C-44.15516923 176.15255576 -59.16989851 191.17652476 -74.19000802 206.19513299 C-74.99887276 207.00391782 -75.80773749 207.81270264 -76.64111328 208.64599609 C-77.4509695 209.45577055 -78.26082572 210.26554501 -79.09522303 211.09985808 C-92.22647737 224.23029911 -105.34772037 237.37069419 -118.46446691 250.51562645 C-131.94274227 264.0226351 -145.42846686 277.52216656 -158.92198056 291.01395255 C-166.49350359 298.584812 -174.06192526 306.15871266 -181.62233925 313.74066734 C-188.05732827 320.1938736 -194.49921367 326.64009607 -200.95010153 333.07741078 C-204.23942413 336.36020754 -207.52546712 339.6461162 -210.80283546 342.94085121 C-213.80636538 345.96013245 -216.81907359 348.96993501 -219.83918252 351.97263 C-220.92674911 353.05713137 -222.0109896 354.14498137 -223.09142236 355.23658999 C-233.15388011 365.39615907 -242.34637261 372.40092787 -256.96166992 372.97094727 C-273.98677201 372.52291826 -284.32867767 360.79527029 -295.55249023 349.51831055 C-297.00319569 348.07167513 -298.4545375 346.62567762 -299.90646362 345.18026733 C-303.83051918 341.26983837 -307.74508581 337.35003958 -311.65756321 333.42803049 C-315.76132795 329.31664649 -319.87243459 325.21261427 -323.98236084 321.10739136 C-330.88060817 314.21459435 -337.77252315 307.31551327 -344.66088867 300.4128418 C-352.61636771 292.44103124 -360.582605 284.48009414 -368.55450368 276.52470601 C-375.40950167 269.6833357 -382.25861888 262.83611923 -389.1028831 255.98401058 C-393.1860326 251.89619249 -397.27116187 247.81040827 -401.36161041 243.72989273 C-405.20651061 239.89367872 -409.04395918 236.0501612 -412.87585831 232.20096207 C-414.28053039 230.79233429 -415.68774113 229.38623264 -417.09770584 227.98290253 C-419.02711694 226.06173288 -420.94698263 224.1314876 -422.86480713 222.19876099 C-423.41996419 221.65029609 -423.97512125 221.10183119 -424.54710126 220.53674614 C-432.19781066 212.77092253 -436.98376008 203.60599352 -437.33666992 192.53344727 C-435.72789358 172.58462062 -421.3935454 160.82703182 -408.0222168 147.41625977 C-406.0208204 145.40508138 -404.03036509 143.38345917 -402.03979492 141.36157227 C-391.34465195 130.5757946 -381.91309193 121.88350076 -365.96166992 121.28344727 C-351.99337506 121.81388884 -342.6310939 129.57752905 -333.19970703 139.14233398 C-332.36933929 139.97226364 -331.53897156 140.8021933 -330.68344116 141.65727234 C-327.96561845 144.37716974 -325.25855123 147.10750668 -322.55151367 149.83813477 C-320.65930961 151.73593946 -318.76652157 153.63314314 -316.87294006 155.52957153 C-312.41539252 159.99640176 -307.96554052 164.47081581 -303.51847798 168.94808209 C-298.45059658 174.04962583 -293.37407982 179.14253987 -288.29685962 184.23478675 C-277.86307082 194.6998389 -267.44024888 205.17576754 -257.02416992 215.65844727 C-251.50872072 211.06570041 -246.41728355 206.17675971 -241.36665344 201.08081055 C-240.51976037 200.2305385 -239.67286729 199.38026646 -238.80031079 198.50422859 C-236.95142174 196.64725195 -235.10349184 194.78937711 -233.25714493 192.92987823 C-230.25189696 189.90325601 -227.24306734 186.88021019 -224.23377991 183.85760498 C-220.42983731 180.03633631 -216.62680926 176.21416138 -212.82484826 172.39092112 C-205.35150001 164.87587034 -197.8712606 157.36771197 -190.38847351 149.86206055 C-189.20846696 148.6783846 -188.02846279 147.49470628 -186.84846097 146.31102562 C-185.06044797 144.51745972 -183.27242576 142.72390301 -181.48438338 140.9303664 C-174.75165299 134.17694429 -168.01942338 127.42302341 -161.28808594 120.66821289 C-160.36567348 119.74259139 -160.36567348 119.74259139 -159.42462643 118.79827046 C-149.46116593 108.79956951 -139.50689676 98.79176181 -129.55553005 88.78102612 C-119.32390464 78.48888037 -109.0807786 68.20827995 -98.82739419 57.9378109 C-92.51141565 51.61051906 -86.20473299 45.27424575 -79.90984138 38.92597342 C-75.5922263 34.57340481 -71.26359146 30.23199808 -66.9262775 25.89905977 C-64.42794611 23.40257998 -61.93466499 20.90156902 -59.45451355 18.3870163 C-56.75819622 15.65354725 -54.03859802 12.94399762 -51.31660461 10.23608398 C-50.5470163 9.44833651 -49.77742799 8.66058903 -48.98451883 7.84897041 C-35.95104495 -4.98606295 -16.37606801 -10.8535151 0 0 Z " fill="#000000" transform="translate(449.024169921875,72.341552734375)"/>
</svg>
