<?xml version="1.0" standalone="no"?>
<!DOCTYPE svg PUBLIC "-//W3C//DTD SVG 20010904//EN"
 "http://www.w3.org/TR/2001/REC-SVG-20010904/DTD/svg10.dtd">
<svg version="1.0" xmlns="http://www.w3.org/2000/svg"
 width="512.000000pt" height="512.000000pt" viewBox="0 0 512.000000 512.000000"
 preserveAspectRatio="xMidYMid meet">

<g transform="translate(0.000000,512.000000) scale(0.100000,-0.100000)"
fill="#000000" stroke="none">
<path d="M78 5099 c-43 -22 -78 -81 -78 -129 0 -48 33 -103 76 -126 26 -15 65
-23 119 -27 170 -13 306 -76 431 -201 140 -140 122 -83 444 -1376 155 -619
292 -1151 305 -1183 38 -94 86 -166 161 -242 l71 -71 -36 -41 c-134 -150 -159
-408 -60 -605 29 -58 140 -183 182 -205 17 -9 16 -14 -17 -74 -116 -211 -80
-468 90 -649 210 -222 558 -228 773 -11 108 108 171 253 171 396 0 67 -22 170
-45 215 l-16 30 391 0 c214 0 390 -2 390 -4 0 -2 -9 -23 -20 -48 -61 -139 -42
-333 46 -480 94 -155 253 -253 429 -265 267 -17 504 151 570 407 24 91 16 252
-15 335 -50 130 -135 229 -249 288 -123 65 -52 61 -1196 67 l-1050 5 -50 23
c-65 30 -93 56 -121 117 -47 99 -21 233 56 298 78 66 -11 61 1235 67 1269 6
1156 -1 1320 83 60 31 102 63 165 127 146 145 138 124 371 1055 143 568 199
810 195 834 -7 44 -30 77 -69 101 -31 20 -66 20 -1923 20 l-1891 0 -80 318
c-60 236 -90 340 -120 404 -141 300 -397 496 -722 553 -115 20 -187 19 -233
-6z m4532 -2237 c-92 -369 -179 -694 -193 -725 -35 -76 -111 -150 -195 -190
l-67 -32 -1115 0 -1115 0 -67 34 c-81 40 -159 119 -193 193 -18 39 -355 1353
-355 1383 0 3 780 5 1734 5 l1734 0 -168 -668z m-2345 -2086 c115 -53 167
-174 131 -300 -23 -76 -83 -138 -157 -160 -66 -20 -92 -20 -157 -1 -103 31
-172 126 -172 238 0 70 16 112 64 165 76 84 189 106 291 58z m1791 -11 c93
-58 141 -178 110 -278 -22 -74 -57 -119 -117 -152 -46 -25 -65 -30 -124 -30
-80 1 -129 21 -182 77 -113 118 -78 318 69 393 46 23 63 26 124 23 58 -3 80
-9 120 -33z"/>
</g>
</svg>
