<?xml version="1.0" standalone="no"?>
<!DOCTYPE svg PUBLIC "-//W3C//DTD SVG 20010904//EN"
 "http://www.w3.org/TR/2001/REC-SVG-20010904/DTD/svg10.dtd">
<svg version="1.0" xmlns="http://www.w3.org/2000/svg"
 width="512.000000pt" height="512.000000pt" viewBox="0 0 512.000000 512.000000"
 preserveAspectRatio="xMidYMid meet">

<g transform="translate(0.000000,512.000000) scale(0.100000,-0.100000)"
fill="#000000" stroke="none">
<path d="M2345 4869 c-1423 -138 -2383 -1502 -2030 -2885 197 -773 780 -1390
1541 -1634 246 -79 420 -105 699 -104 248 0 362 13 579 68 902 229 1583 984
1721 1910 24 161 31 345 15 401 -18 64 -87 139 -147 159 -97 33 -175 15 -248
-59 -58 -57 -75 -102 -75 -194 0 -253 -72 -539 -200 -796 -179 -358 -458 -638
-815 -815 -234 -116 -432 -172 -686 -193 -487 -40 -977 125 -1359 458 -424
369 -661 959 -612 1522 21 239 73 432 176 648 277 579 830 967 1477 1035 417
44 849 -66 1210 -308 112 -76 271 -211 327 -279 l35 -43 -353 0 c-248 0 -365
-4 -394 -12 -86 -26 -166 -136 -166 -228 0 -92 80 -202 166 -228 30 -9 198
-12 636 -12 680 0 657 -2 731 80 24 26 49 66 55 88 17 57 17 1208 0 1266 -16
55 -99 138 -154 154 -94 28 -169 8 -239 -63 -70 -69 -75 -92 -75 -344 0 -116
-3 -211 -6 -211 -3 0 -31 22 -60 49 -448 410 -1127 631 -1749 570z"/>
</g>
</svg>
