<?xml version="1.0" standalone="no"?>
<!DOCTYPE svg PUBLIC "-//W3C//DTD SVG 20010904//EN"
 "http://www.w3.org/TR/2001/REC-SVG-20010904/DTD/svg10.dtd">
<svg version="1.0" xmlns="http://www.w3.org/2000/svg"
 width="490.000000pt" height="354.000000pt" viewBox="0 0 490.000000 354.000000"
 preserveAspectRatio="xMidYMid meet">

<g transform="translate(0.000000,354.000000) scale(0.100000,-0.100000)"
fill="#000000" stroke="none">
<path d="M4362 3510 c-23 -5 -70 -21 -105 -36 -58 -26 -134 -99 -1244 -1208
l-1183 -1181 -67 66 c-368 358 -1041 994 -1074 1015 -137 86 -320 86 -459 -1
-62 -39 -130 -117 -167 -192 -65 -132 -55 -285 27 -411 20 -31 86 -104 146
-162 60 -58 387 -374 726 -702 674 -652 665 -644 809 -668 80 -14 152 -3 242
36 58 26 146 112 1401 1363 736 735 1358 1362 1382 1394 171 229 65 563 -212
666 -63 24 -163 33 -222 21z"/>
</g>
</svg>
