<svg width="24" height="24" viewBox="0 0 24 24" fill="none" xmlns="http://www.w3.org/2000/svg">
<path d="M12 15C13.6569 15 15 13.6569 15 12C15 10.3431 13.6569 9 12 9C10.3431 9 9 10.3431 9 12C9 13.6569 10.3431 15 12 15Z" stroke="currentColor" stroke-width="2" stroke-linecap="round" stroke-linejoin="round"/>
<path d="M2 12.88V11.12C2 10.08 2.85 9.22 3.9 9.22C5.71 9.22 6.45 7.94 5.54 6.31C5.02 5.47 5.26 4.36 6.1 3.84L7.87 2.88C8.5 2.51 9.32 2.74 9.69 3.37L9.9 3.72C10.71 5.07 12.29 5.07 13.1 3.72L13.31 3.37C13.68 2.74 14.5 2.51 15.13 2.88L16.9 3.84C17.73 4.36 17.98 5.47 17.45 6.31C16.55 7.94 17.29 9.22 19.1 9.22C20.15 9.22 21 10.07 21 11.12V12.88C21 13.92 20.15 14.78 19.1 14.78C17.29 14.78 16.55 16.06 17.45 17.69C17.98 18.53 17.73 19.64 16.9 20.16L15.13 21.12C14.5 21.49 13.68 21.26 13.31 20.63L13.1 20.28C12.29 18.93 10.71 18.93 9.9 20.28L9.69 20.63C9.32 21.26 8.5 21.49 7.87 21.12L6.1 20.16C5.27 19.64 5.02 18.53 5.54 17.69C6.45 16.06 5.71 14.78 3.9 14.78C2.85 14.78 2 13.93 2 12.88Z" stroke="currentColor" stroke-width="2" stroke-linecap="round" stroke-linejoin="round"/>
</svg>